<svg xmlns="http://www.w3.org/2000/svg" viewBox="0 0 64 64">
  <circle cx="32" cy="32" r="30" fill="#FDEBD0" stroke="#E67E22" stroke-width="2"/>
  <!-- Rocket body -->
  <path d="M32,8 Q42,20 42,36 L38,42 L26,42 L22,36 Q22,20 32,8 Z" fill="#ECF0F1" stroke="#BDC3C7" stroke-width="1"/>
  <!-- Nose cone -->
  <path d="M32,8 Q36,16 36,20 L28,20 Q28,16 32,8 Z" fill="#E74C3C"/>
  <!-- Window -->
  <circle cx="32" cy="26" r="4" fill="#3498DB" stroke="#2980B9" stroke-width="1"/>
  <circle cx="31" cy="25" r="1.5" fill="#5DADE2" opacity="0.6"/>
  <!-- Fins -->
  <path d="M22,36 L16,44 L24,42 Z" fill="#E74C3C"/>
  <path d="M42,36 L48,44 L40,42 Z" fill="#E74C3C"/>
  <!-- Flame -->
  <path d="M28,42 Q30,52 32,56 Q34,52 36,42" fill="#F39C12"/>
  <path d="M30,42 Q31,48 32,52 Q33,48 34,42" fill="#E74C3C"/>
  <!-- Text -->
  <text x="32" y="62" text-anchor="middle" font-family="Arial" font-weight="bold" font-size="5" fill="#E67E22">YOU CAN DO IT!</text>
</svg>
